<?xml version="1.0" encoding="utf-8"?>
<!-- Svg Vector Icons : http://www.onlinewebfonts.com/icon -->
<!DOCTYPE svg PUBLIC "-//W3C//DTD SVG 1.1//EN" "http://www.w3.org/Graphics/SVG/1.1/DTD/svg11.dtd">
<svg version="1.1" xmlns="http://www.w3.org/2000/svg" xmlns:xlink="http://www.w3.org/1999/xlink" x="0px" y="0px" viewBox="0 0 1000 1000" enable-background="new 0 0 1000 1000" xml:space="preserve">
<metadata> Svg Vector Icons : http://www.onlinewebfonts.com/icon </metadata>
<g stroke='#fff' fill='#fff'>
  <path d="M984.1,875.1L529.9,88.4c-6.2-10.7-17.6-17.3-30-17.3s-23.8,6.6-30,17.3L14.6,877.1c-6.2,10.7-6.2,23.9,0,34.5c6.2,10.7,17.6,17.3,30,17.3h910.7c0.1,0,0.1,0,0.1,0c19.1,0,34.5-15.5,34.5-34.5C989.9,887.2,987.7,880.6,984.1,875.1z M104.4,859.8l395.5-685.1l395.5,685.1H104.4z"/><path d="M470,319L213.9,762.6c-6.2,10.7-6.2,23.9,0,34.5c6.2,10.7,17.6,17.3,29.9,17.3h512.3c0.1,0,0.1,0,0.1,0c19.1,0,34.5-15.5,34.5-34.5c0-7.2-2.2-13.8-5.9-19.3L529.9,319c-6.2-10.7-17.6-17.3-30-17.3C487.6,301.7,476.1,308.2,470,319z M696.2,745.4H303.6l196.3-340L696.2,745.4z" />
</g>
</svg>
