<svg xmlns="http://www.w3.org/2000/svg" style="display: none;"><symbol id="car-light" viewBox="0 -48 384 384"><title>car-light</title><path d="m55.808594 237.023438 120.832031 48.433593c.40625.167969.824219.308594 1.246094.4375 4.714843 1.457031 9.511719 2.167969 14.265625 2.167969 10.078125 0 19.953125-3.214844 28.359375-9.429688 12-8.855468 19.03125-22.335937 19.472656-37.167968l.007813-.089844c10.769531-64.589844 10.769531-130.09375 0-194.6875l-.007813-.089844c-.433594-14.832031-7.472656-28.300781-19.472656-37.167968-12.382813-9.148438-27.9375-11.796876-42.632813-7.253907-.421875.128907-.832031.273438-1.246094.441407l-120.832031 48.429687c-33.402343 10.59375-55.800781 41.152344-55.800781 76.257813v33.472656c0 35.101562 22.398438 65.660156 55.808594 76.246094zm-23.808594-109.71875c0-21.203126 13.617188-39.640626 33.878906-45.867188.425782-.132812.839844-.277344 1.25-.445312l120.695313-48.375c4.742187-1.296876 9.695312-.371094 13.671875 2.566406 4.136718 3.046875 6.503906 7.742187 6.503906 12.878906 0 .882812.070312 1.761719.214844 2.632812l.210937 1.265626c10.183594 61.101562 10.183594 123.054687 0 184.160156l-.210937 1.261718c-.144532.871094-.214844 1.753907-.214844 2.632813 0 5.136719-2.367188 9.832031-6.496094 12.871094-3.976562 2.9375-8.929687 3.871093-13.671875 2.570312l-120.695312-48.378906c-.410157-.167969-.832031-.3125-1.25-.445313-20.269531-6.21875-33.886719-24.65625-33.886719-45.855468zm0 0"/><path d="m368 56.039062h-80c-8.832031 0-16 7.167969-16 16 0 8.832032 7.167969 16 16 16h80c8.832031 0 16-7.167968 16-16 0-8.832031-7.167969-16-16-16zm0 0"/><path d="m368 128.039062h-80c-8.832031 0-16 7.167969-16 16 0 8.832032 7.167969 16 16 16h80c8.832031 0 16-7.167968 16-16 0-8.832031-7.167969-16-16-16zm0 0"/><path d="m368 200.039062h-80c-8.832031 0-16 7.167969-16 16 0 8.832032 7.167969 16 16 16h80c8.832031 0 16-7.167968 16-16 0-8.832031-7.167969-16-16-16zm0 0"/></symbol><symbol id="hazard" viewBox="0 0 212.715 212.715"><title>hazard</title><path d="M211.436,187.771L112.843,17.002c-1.34-2.32-3.815-3.75-6.495-3.75c-2.68,0-5.155,1.43-6.495,3.75L1.005,188.213 c-1.34,2.32-1.34,5.18,0,7.5c1.34,2.32,3.816,3.75,6.495,3.75h197.695c0.007,0,0.015,0,0.02,0c4.143,0,7.5-3.357,7.5-7.5 C212.715,190.41,212.243,188.968,211.436,187.771z M20.49,184.463l85.857-148.711l85.857,148.711H20.49z"/><path d="M99.853,67.055L44.251,163.36c-1.34,2.32-1.34,5.18,0,7.5c1.34,2.32,3.815,3.75,6.495,3.75h111.203 c0.008,0.001,0.015,0.001,0.02,0c4.143,0,7.5-3.357,7.5-7.5c0-1.553-0.472-2.995-1.279-4.192l-55.347-95.863 c-1.34-2.32-3.815-3.75-6.495-3.75C103.668,63.305,101.192,64.734,99.853,67.055z M148.959,159.61H63.736l42.611-73.806 L148.959,159.61z"/></symbol><symbol id="high-beam" viewBox="0 0 211.398 211.398"><title>high-beam</title><path d="M182.325,56.618c-16.482-12.067-37.006-19.272-54.901-19.272c-18.011,0-31.322,7.262-39.563,21.583 c-6.457,11.221-9.597,26.52-9.597,46.771c0,20.25,3.139,35.549,9.597,46.771c8.242,14.321,21.553,21.583,39.563,21.583 c17.895,0,38.419-7.205,54.901-19.272c18.748-13.727,29.073-31.158,29.073-49.081C211.398,87.775,201.073,70.345,182.325,56.618z M173.464,142.677c-13.795,10.101-31.437,16.375-46.04,16.375c-15.904,0-34.16-6.064-34.16-53.353s18.256-53.354,34.16-53.354 c14.604,0,32.245,6.274,46.04,16.375c14.575,10.671,22.935,24.149,22.935,36.979C196.398,118.528,188.039,132.006,173.464,142.677z "/><path d="M64.055,44.945L7.5,44.944c-4.142,0-7.5,3.358-7.5,7.5s3.358,7.5,7.5,7.5l56.555,0.001c4.142,0,7.5-3.358,7.5-7.5 S68.197,44.945,64.055,44.945z"/><path d="M64.055,72.299H7.5c-4.142,0-7.5,3.358-7.5,7.5c0,4.142,3.358,7.5,7.5,7.5h56.555c4.142,0,7.5-3.358,7.5-7.5 C71.555,75.657,68.197,72.299,64.055,72.299z"/><path d="M64.055,99.653H7.5c-4.142,0-7.5,3.358-7.5,7.5c0,4.142,3.358,7.5,7.5,7.5h56.555c4.142,0,7.5-3.358,7.5-7.5 C71.555,103.011,68.197,99.653,64.055,99.653z"/><path d="M64.055,127.008H7.5c-4.142,0-7.5,3.358-7.5,7.5s3.358,7.5,7.5,7.5h56.555c4.142,0,7.5-3.358,7.5-7.5 S68.197,127.008,64.055,127.008z"/><path d="M64.055,154.362H7.5c-4.142,0-7.5,3.358-7.5,7.5c0,4.142,3.358,7.5,7.5,7.5h56.555c4.142,0,7.5-3.358,7.5-7.5 C71.555,157.72,68.197,154.362,64.055,154.362z"/></symbol><symbol id="warning" viewBox="0 0 212.715 212.715"><title>warning</title><path d="M211.436,187.771L112.843,17.002c-1.34-2.32-3.815-3.75-6.495-3.75c-2.68,0-5.155,1.43-6.495,3.75L1.005,188.213 c-1.34,2.32-1.34,5.18,0,7.5c1.34,2.32,3.816,3.75,6.495,3.75h197.695c0.007,0,0.015,0,0.02,0c4.143,0,7.5-3.357,7.5-7.5 C212.715,190.41,212.243,188.968,211.436,187.771z M20.49,184.463l85.857-148.711l85.857,148.711H20.49z"/><path d="M98.848,76.58v63.879c0,4.143,3.357,7.5,7.5,7.5s7.5-3.357,7.5-7.5V76.58c0-4.143-3.357-7.5-7.5-7.5 S98.848,72.438,98.848,76.58z"/><circle cx="106.348" cy="164.007" r="9.328"/></symbol><symbol id="low-beam" viewBox="0 0 211.399 211.399"><title>low-beam</title><path d="M182.327,44.824c-16.482-12.068-37.005-19.272-54.9-19.272c-18.011,0-31.322,7.262-39.563,21.583 c-6.457,11.221-9.597,26.52-9.597,46.771c0,20.25,3.139,35.549,9.597,46.771c8.242,14.321,21.553,21.583,39.563,21.583 c17.895,0,38.418-7.205,54.9-19.273c18.748-13.727,29.072-31.158,29.072-49.081C211.399,75.981,201.074,58.55,182.327,44.824z M173.465,130.883c-13.795,10.101-31.437,16.376-46.039,16.376c-15.904,0-34.16-6.064-34.16-53.354 c0-47.289,18.256-53.354,34.16-53.354c14.603,0,32.244,6.275,46.039,16.375c14.575,10.671,22.934,24.149,22.934,36.979 C196.399,106.734,188.04,120.212,173.465,130.883z"/><path d="M60.703,33.943L4.148,62.22c-3.705,1.852-5.207,6.357-3.354,10.062c1.314,2.628,3.962,4.147,6.714,4.147 c1.127,0,2.271-0.255,3.348-0.794l56.556-28.277c3.705-1.852,5.207-6.358,3.354-10.062C68.913,33.591,64.408,32.088,60.703,33.943z "/><path d="M60.703,61.297L4.148,89.575c-3.705,1.852-5.207,6.357-3.354,10.062c1.314,2.628,3.962,4.147,6.714,4.147 c1.127,0,2.271-0.255,3.348-0.793l56.556-28.278c3.705-1.852,5.207-6.357,3.354-10.062C68.913,60.945,64.408,59.443,60.703,61.297z "/><path d="M60.703,88.651L4.148,116.928c-3.705,1.852-5.207,6.357-3.354,10.062c1.314,2.628,3.962,4.147,6.714,4.147 c1.127,0,2.271-0.255,3.348-0.793l56.556-28.277c3.705-1.852,5.207-6.357,3.354-10.062C68.913,88.299,64.408,86.798,60.703,88.651z "/><path d="M60.703,116.005L4.148,144.284c-3.705,1.852-5.207,6.357-3.354,10.062c1.314,2.628,3.962,4.147,6.714,4.147 c1.127,0,2.271-0.255,3.348-0.793l56.556-28.278c3.705-1.852,5.207-6.357,3.354-10.062 C68.913,115.654,64.408,114.152,60.703,116.005z"/><path d="M60.703,143.36L4.148,171.638c-3.705,1.852-5.207,6.357-3.354,10.062c1.314,2.628,3.962,4.147,6.714,4.147 c1.127,0,2.271-0.255,3.348-0.793l56.556-28.278c3.705-1.852,5.207-6.357,3.354-10.062 C68.913,143.009,64.408,141.506,60.703,143.36z"/></symbol><symbol id="right-arrow" viewBox="0 0 512 512"><title>right-arrow</title><path d="M506.134,241.843c-0.006-0.006-0.011-0.013-0.018-0.019l-104.504-104c-7.829-7.791-20.492-7.762-28.285,0.068 c-7.792,7.829-7.762,20.492,0.067,28.284L443.558,236H20c-11.046,0-20,8.954-20,20c0,11.046,8.954,20,20,20h423.557 l-70.162,69.824c-7.829,7.792-7.859,20.455-0.067,28.284c7.793,7.831,20.457,7.858,28.285,0.068l104.504-104 c0.006-0.006,0.011-0.013,0.018-0.019C513.968,262.339,513.943,249.635,506.134,241.843z"/></symbol></svg>